<svg width="20" height="20" viewBox="0 0 20 20" fill="none" xmlns="http://www.w3.org/2000/svg">
<path d="M11.7054 1.86832L8.24874 1.85999H8.24707C4.60207 1.85999 1.74707 4.71582 1.74707 8.36165C1.74707 11.7767 4.40207 14.3666 7.9679 14.5033V17.6933C7.9679 17.7833 8.00457 17.9317 8.0679 18.0292C8.18624 18.2167 8.3879 18.3183 8.59457 18.3183C8.70957 18.3183 8.8254 18.2866 8.92957 18.22C9.14957 18.08 14.3237 14.77 15.6696 13.6316C17.2546 12.29 18.2029 10.3233 18.2054 8.37165V8.35748C18.2004 4.71832 15.3471 1.86832 11.7054 1.86749V1.86832ZM14.8612 12.6783C13.9162 13.4783 10.8096 15.5158 9.2179 16.5475V13.8917C9.2179 13.5467 8.93874 13.2667 8.5929 13.2667H8.2629C5.2129 13.2667 2.9979 11.2033 2.9979 8.36165C2.9979 5.41665 5.30457 3.10999 8.2479 3.10999L11.7037 3.11832H11.7054C14.6487 3.11832 16.9554 5.42332 16.9571 8.36498C16.9546 9.95665 16.1721 11.5683 14.8621 12.6783H14.8612Z" fill="#536471"/>
</svg>
