<svg width="21" height="20" viewBox="0 0 21 20" fill="none" xmlns="http://www.w3.org/2000/svg">
<g clip-path="url(#clip0_163_2150)">
<path d="M20.3085 13.0584C20.0652 12.8142 19.6693 12.8142 19.4252 13.0584L17.5752 14.9084V6.37505C17.5752 4.65172 16.1727 3.25005 14.4502 3.25005H9.57518C9.23018 3.25005 8.95018 3.53005 8.95018 3.87505C8.95018 4.22005 9.23018 4.50005 9.57518 4.50005H14.4502C15.4835 4.50005 16.3252 5.34172 16.3252 6.37505V14.9084L14.4752 13.0584C14.231 12.8142 13.8352 12.8142 13.5918 13.0584C13.3485 13.3026 13.3468 13.6984 13.5918 13.9417L16.5085 16.8584C16.6293 16.9809 16.7893 17.0417 16.9502 17.0417C17.111 17.0417 17.2694 16.9817 17.3918 16.8584L20.3085 13.9417C20.5535 13.6984 20.5535 13.3026 20.3085 13.0584ZM11.4252 15.7917H6.55018C5.51685 15.7917 4.67518 14.9501 4.67518 13.9167V5.38338L6.52518 7.23338C6.64852 7.35588 6.80852 7.41672 6.96852 7.41672C7.12852 7.41672 7.28852 7.35588 7.41018 7.23338C7.65435 6.98922 7.65435 6.59338 7.41018 6.35005L4.49352 3.43338C4.24935 3.18838 3.85352 3.18838 3.61018 3.43338L0.693516 6.35005C0.448516 6.59338 0.448516 6.98922 0.693516 7.23338C0.938516 7.47755 1.33268 7.47755 1.57685 7.23338L3.42685 5.38338V13.9167C3.42685 15.6401 4.82935 17.0417 6.55185 17.0417H11.4268C11.7718 17.0417 12.0518 16.7617 12.0518 16.4167C12.0518 16.0717 11.771 15.7917 11.4268 15.7917H11.4252Z" fill="#536471"/>
</g>
<defs>
<clipPath id="clip0_163_2150">
<rect width="20" height="20" fill="white" transform="translate(0.5)"/>
</clipPath>
</defs>
</svg>
