<svg width="20" height="20" viewBox="0 0 20 20" fill="none" xmlns="http://www.w3.org/2000/svg">
<path d="M14.6087 6.22504L10.442 2.05837C10.1978 1.8142 9.80199 1.8142 9.55866 2.05837L5.39199 6.22504C5.14699 6.4692 5.14699 6.86504 5.39199 7.10837C5.63699 7.3517 6.03116 7.35337 6.27533 7.10837L9.37533 4.00837V12.5C9.37533 12.845 9.65533 13.125 10.0003 13.125C10.3453 13.125 10.6253 12.845 10.6253 12.5V4.00837L13.7253 7.10837C13.847 7.23087 14.007 7.2917 14.167 7.2917C14.327 7.2917 14.487 7.2317 14.6087 7.10837C14.8528 6.8642 14.8528 6.4692 14.6087 6.22504Z" fill="#536471"/>
<path d="M16.4237 18.2867H3.57699C2.52366 18.2867 1.66699 17.43 1.66699 16.3767V11.6667C1.66699 11.3217 1.94699 11.0417 2.29199 11.0417C2.63699 11.0417 2.91699 11.3217 2.91699 11.6667V16.3767C2.91699 16.7409 3.21283 17.0367 3.57699 17.0367H16.4237C16.7878 17.0367 17.0837 16.7409 17.0837 16.3767V11.6667C17.0837 11.3217 17.3637 11.0417 17.7087 11.0417C18.0537 11.0417 18.3337 11.3217 18.3337 11.6667V16.3767C18.3337 17.43 17.477 18.2867 16.4237 18.2867Z" fill="#536471"/>
</svg>
